<svg width="24" height="24" viewBox="0 0 24 24" fill="none" xmlns="http://www.w3.org/2000/svg">
<path d="M7.82912 16.171C5.67853 14.0163 4.02464 11.4177 2.98312 8.55702C2.41012 6.99302 2.93512 5.27502 4.11312 4.09702L4.84212 3.36902C5.03811 3.17264 5.2709 3.01684 5.52718 2.91053C5.78345 2.80423 6.05817 2.74951 6.33562 2.74951C6.61307 2.74951 6.88779 2.80423 7.14407 2.91053C7.40034 3.01684 7.63313 3.17264 7.82912 3.36902L9.53612 5.07602C9.7325 5.27201 9.88831 5.5048 9.99461 5.76108C10.1009 6.01735 10.1556 6.29208 10.1556 6.56952C10.1556 6.84697 10.1009 7.12169 9.99461 7.37797C9.88831 7.63424 9.7325 7.86704 9.53612 8.06302L9.11612 8.48302C8.94801 8.6511 8.81465 8.85065 8.72366 9.07028C8.63268 9.2899 8.58585 9.5253 8.58585 9.76302C8.58585 10.0007 8.63268 10.2361 8.72366 10.4558C8.81465 10.6754 8.94801 10.8749 9.11612 11.043L12.9561 14.884C13.1242 15.0521 13.3238 15.1855 13.5434 15.2765C13.763 15.3675 13.9984 15.4143 14.2361 15.4143C14.4738 15.4143 14.7092 15.3675 14.9289 15.2765C15.1485 15.1855 15.348 15.0521 15.5161 14.884L15.9371 14.464C16.1331 14.2676 16.3659 14.1118 16.6222 14.0055C16.8785 13.8992 17.1532 13.8445 17.4306 13.8445C17.7081 13.8445 17.9828 13.8992 18.2391 14.0055C18.4953 14.1118 18.7281 14.2676 18.9241 14.464L20.6311 16.171C20.8275 16.367 20.9833 16.5998 21.0896 16.8561C21.1959 17.1124 21.2506 17.3871 21.2506 17.6645C21.2506 17.942 21.1959 18.2167 21.0896 18.473C20.9833 18.7292 20.8275 18.962 20.6311 19.158L19.9031 19.886C18.7251 21.065 17.0071 21.59 15.4431 21.017C12.5825 19.9755 9.98389 18.3216 7.82912 16.171Z" stroke="white" stroke-width="1.5" stroke-linejoin="round"/>
</svg>
