<svg width="21" height="21" viewBox="0 0 21 21" fill="none" xmlns="http://www.w3.org/2000/svg">
<path d="M13.6875 0.75H6.9375C3.52024 0.75 0.75 3.52024 0.75 6.9375V13.6875C0.75 17.1048 3.52024 19.875 6.9375 19.875H13.6875C17.1048 19.875 19.875 17.1048 19.875 13.6875V6.9375C19.875 3.52024 17.1048 0.75 13.6875 0.75Z" stroke="white" stroke-width="1.5" stroke-linecap="round" stroke-linejoin="round"/>
<path d="M10.3126 14.3692C12.5531 14.3692 14.3694 12.553 14.3694 10.3125C14.3694 8.07201 12.5531 6.25574 10.3126 6.25574C8.07213 6.25574 6.25586 8.07201 6.25586 10.3125C6.25586 12.553 8.07213 14.3692 10.3126 14.3692Z" stroke="white" stroke-width="1.5" stroke-linecap="round" stroke-linejoin="round"/>
<path d="M15.8189 5.96545C16.4589 5.96545 16.9777 5.44666 16.9777 4.8067C16.9777 4.16674 16.4589 3.64795 15.8189 3.64795C15.1789 3.64795 14.6602 4.16674 14.6602 4.8067C14.6602 5.44666 15.1789 5.96545 15.8189 5.96545Z" fill="white"/>
</svg>
