<svg width="27" height="27" viewBox="0 0 27 27" fill="none" xmlns="http://www.w3.org/2000/svg">
<path d="M16.875 3.9375H10.125C6.70774 3.9375 3.9375 6.70774 3.9375 10.125V16.875C3.9375 20.2923 6.70774 23.0625 10.125 23.0625H16.875C20.2923 23.0625 23.0625 20.2923 23.0625 16.875V10.125C23.0625 6.70774 20.2923 3.9375 16.875 3.9375Z" stroke="black" stroke-width="1.5" stroke-linecap="round" stroke-linejoin="round"/>
<path d="M13.5 17.5569C15.7405 17.5569 17.5567 15.7406 17.5567 13.5001C17.5567 11.2596 15.7405 9.44336 13.5 9.44336C11.2595 9.44336 9.44324 11.2596 9.44324 13.5001C9.44324 15.7406 11.2595 17.5569 13.5 17.5569Z" stroke="black" stroke-width="1.5" stroke-linecap="round" stroke-linejoin="round"/>
<path d="M19.0058 9.15295C19.6458 9.15295 20.1645 8.63416 20.1645 7.9942C20.1645 7.35424 19.6458 6.83545 19.0058 6.83545C18.3658 6.83545 17.847 7.35424 17.847 7.9942C17.847 8.63416 18.3658 9.15295 19.0058 9.15295Z" fill="black"/>
</svg>
