<svg width="52" height="52" viewBox="0 0 52 52" fill="none" xmlns="http://www.w3.org/2000/svg">
<path d="M26.3845 1.13759C40.1245 1.37539 51.0738 12.7001 50.8483 26.4403C50.623 40.1805 39.3082 51.1398 25.5678 50.927C11.8099 50.7138 0.833303 39.3814 1.05896 25.6236C1.28462 11.8659 12.627 0.899501 26.3845 1.13759ZM39.8739 25.2785C39.6897 25.9963 39.6716 26.7202 39.4728 27.4694L39.4429 27.5306C38.9524 28.5336 37.5905 29.8825 36.5177 30.2816C36.0212 30.4663 33.9412 30.1363 33.4586 29.8809C33.2176 29.7503 32.9995 29.5813 32.813 29.3805C31.7927 28.3034 30.8093 26.8579 29.8566 25.7062C29.3035 25.0082 28.6969 24.3258 28.1107 23.656C27.0131 22.4019 28.3441 20.8872 27.5287 19.5597C27.0841 18.8357 25.8028 18.2647 24.9708 18.559C23.7925 18.9757 23.6288 19.8347 23.1566 20.7818C22.8632 21.3569 22.3518 21.7906 21.7365 21.9863C20.5379 22.3661 20.0432 21.6463 18.9781 21.4014C18.152 21.2335 17.492 21.6731 16.6974 21.1955C16.1503 20.8668 15.9268 20.6305 15.6006 20.0995C15.0086 19.136 15.4192 18.0635 15.0886 17.0478C14.5929 15.5254 12.9084 14.6073 11.3698 15.149C9.23216 15.8622 8.61166 18.5861 10.3058 20.1039C12.0639 21.7706 13.6649 20.0922 15.6312 21.1925C16.9686 21.7769 16.4913 22.8275 16.8147 23.8698C17.0752 24.7092 17.9211 25.291 18.8188 25.2028C20.6321 25.0249 20.243 23.1781 21.7203 22.5872C22.2288 22.3752 23.4572 22.2402 23.9521 22.5437C24.8768 23.111 25.772 23.0583 26.7317 23.3539C27.0659 23.4568 27.753 24.2733 28.05 24.5548C29.0006 25.4559 29.8052 26.5232 30.605 27.558C31.232 28.3801 32.201 29.3565 32.6239 30.2884C32.8477 31.238 32.3936 31.9851 32.7527 32.9554C33.0977 33.9865 34.3084 34.3615 35.274 34.0106C35.8246 33.8089 36.3175 33.1307 36.4217 32.5639C36.545 31.8938 36.6707 31.4234 36.9396 30.7884C37.8358 30.0779 39.8998 28.4736 41.1555 28.8022C42.4252 29.1345 43.0198 29.4757 44.3293 28.7309C45.8749 27.8516 46.4015 26.0817 45.5893 24.509C44.7273 23.0177 42.7248 22.3014 41.2135 23.3432C40.4451 23.8728 40.0824 24.3333 39.8739 25.2785ZM26.4301 37.5591C28.2673 40.4365 23.6694 41.7507 25.5593 44.7302C26.4578 46.1467 28.1579 46.6228 29.6024 45.7233C30.2642 45.3108 30.7331 44.6504 30.9043 43.8897C31.0739 43.1245 31.02 42.3945 30.5861 41.7195C30.0151 40.8314 29.2897 40.6536 28.5187 40.0551C27.6982 39.4183 27.1632 38.284 27.3865 37.248C27.5955 36.2778 28.776 35.2644 28.0908 34.1916C27.7992 33.735 27.3282 33.2707 26.7873 33.1505C25.4147 32.8453 24.9824 34.3972 22.7307 33.4179C22.2984 33.2293 21.8978 32.9754 21.5427 32.665C21.0242 32.208 20.0513 30.8313 19.2227 30.9915C18.729 31.0597 18.1502 31.2607 17.9018 31.6645C17.2723 32.688 17.3877 33.7712 16.0163 34.2539C15.7091 34.3831 15.4077 34.4976 15.0738 34.5458C13.849 34.7226 13.04 33.9342 11.7984 33.9179C9.9921 33.8942 8.93295 35.4387 9.11638 37.1268C9.19326 37.8345 9.78679 38.6225 10.3553 39.0532C11.417 39.7642 13.3097 39.5245 14.0231 38.4148C14.4353 37.7735 14.5731 37.1546 14.8324 36.4573C15.1683 35.6377 16.22 34.5802 17.1062 34.3864C17.933 34.2055 18.5412 34.7352 19.335 34.7305C19.9172 34.7269 20.4626 34.3135 20.9638 34.1469C21.6197 33.929 23.2117 34.0253 23.7765 34.4296C24.2698 34.7827 24.5084 35.8255 24.9546 36.3275C25.4928 36.9331 25.9954 36.9105 26.4301 37.5591ZM24.5418 11.7067C26.1386 11.2142 26.9864 12.1096 28.4497 11.5402C29.1713 11.2594 29.9045 10.027 30.9106 10.6011C32.0137 11.2561 31.7692 13.345 33.6201 12.7806C34.2128 12.6084 34.2402 12.4915 34.5634 11.9701C35.0471 11.1899 34.6408 10.7179 34.2146 10.0272C33.9971 9.93947 33.6887 9.80759 33.4677 9.79114C32.2547 9.70064 30.9342 10.8314 30.2426 9.13601C29.7907 8.02837 29.5804 7.06845 28.3245 6.54601C27.9948 6.40885 27.4773 6.30038 27.1198 6.35203C26.2438 6.57201 25.5969 6.86847 25.1067 7.66995C24.4422 8.75662 24.8813 10.0703 24.0357 11.0985C23.675 11.5737 22.8777 12.2386 22.2856 12.3685C21.1514 12.6174 20.5827 11.8258 19.3999 12.5266C18.0575 13.3219 18.1915 15.176 19.472 15.9435C19.8706 16.1824 20.6025 16.1585 21.0308 16.0164C22.4937 15.6026 22.0641 14.0592 22.6834 13.0539C22.9541 12.6145 24.0523 11.9089 24.5418 11.7067ZM34.0454 25.7118C35.3385 25.7636 36.4927 25.167 36.5464 23.6479C36.5822 22.6341 36.1186 21.0945 37.5881 20.7599C38.513 20.5762 39.644 20.6118 39.7851 19.3751C39.8948 18.4137 39.2087 17.401 38.1647 17.475C37.6765 17.6175 37.1776 17.8123 36.9169 18.27C36.5206 18.9658 36.9782 19.8475 36.6057 20.5315C36.1467 21.3744 35.1431 21.2994 34.3045 21.4043C33.5465 21.4991 32.9619 21.7533 32.5447 22.447C31.7741 23.7286 32.686 25.3474 34.0454 25.7118ZM14.0874 29.8716C15.2163 28.9854 15.8332 27.9169 14.8468 26.5455C14.523 26.0954 14.0155 25.8019 13.4604 25.7468C11.7003 25.6447 11.6299 26.9256 9.73377 26.7325C9.01583 26.0085 8.42458 24.6105 7.30222 24.7272C6.08946 25.1367 5.39228 26.4305 6.37632 27.4545C7.68216 28.8134 8.64909 26.851 9.90613 27.2797C11.1982 27.774 11.3301 30.1012 13.0149 30.0685C13.3878 30.0729 13.7542 30.0592 14.0874 29.8716ZM21.3153 6.90955C21.2515 6.64361 21.106 6.40428 20.899 6.22538C20.6594 6.01814 20.3526 5.90495 20.0358 5.90693C19.3276 5.91135 18.7517 6.47883 18.7369 7.18687C18.7221 7.89491 19.2737 8.48601 19.9811 8.52008C20.5101 8.54552 21.0022 8.24931 21.2273 7.76989C21.3534 7.50141 21.3844 7.19804 21.3153 6.90955ZM30.8897 18.2477C31.0658 18.3408 31.2609 18.3923 31.46 18.3984C31.9444 18.4133 32.3972 18.1587 32.6364 17.7371C32.8755 17.3156 32.8616 16.7963 32.6003 16.3881C32.3757 16.0373 31.9973 15.8147 31.5816 15.7887C30.9671 15.7502 30.4092 16.146 30.2424 16.7387C30.0756 17.3314 30.3453 17.9601 30.8897 18.2477ZM17.8242 43.675C18.2823 43.8847 18.3987 43.9398 18.9179 43.9115C19.3273 43.7983 19.5159 43.6646 19.8407 43.4097C19.9124 43.1639 20.0397 42.7654 20.0877 42.5251C19.9033 41.8143 19.4012 41.3282 18.6514 41.2432C17.4442 41.5969 17.0538 42.6685 17.8242 43.675ZM37.4121 38.9144C37.1049 38.6615 36.7001 38.5602 36.3099 38.6385C35.601 38.7808 35.1373 39.4655 35.2682 40.1767C35.3991 40.8878 36.0763 41.3625 36.7894 41.243C37.3013 41.1572 37.7159 40.7804 37.8499 40.279C37.984 39.7776 37.8129 39.2442 37.4121 38.9144ZM38.9435 13.334L39.4838 13.4268C40.244 13.4062 40.4356 13.0943 40.7848 12.4552C40.7354 11.5184 40.5361 10.9073 39.5246 10.7812C38.7114 10.8774 38.1406 11.4166 38.2302 12.284C38.2755 12.7214 38.6447 13.0417 38.9435 13.334ZM24.9241 26.3709L24.3912 26.2227C24.2782 26.2435 23.8741 26.3105 23.7967 26.3575C22.3401 27.2416 22.9469 28.4388 24.2023 28.9892C24.769 28.7604 25.2851 28.6124 25.5419 28.0143C25.5601 27.9717 25.5773 27.9287 25.5935 27.8854C25.5669 27.6193 25.5419 27.2874 25.5035 27.0287L24.9241 26.3709ZM42.0317 33.2291C41.315 33.3405 40.821 34.0074 40.9234 34.7254C41.0258 35.4435 41.6865 35.9458 42.4057 35.8524C42.8792 35.791 43.2829 35.4797 43.4627 35.0374C43.6425 34.5952 43.5705 34.0905 43.2743 33.7161C42.9781 33.3418 42.5034 33.1557 42.0317 33.2291Z" fill="white"/>
</svg>
