<svg width="52" height="52" viewBox="0 0 52 52" fill="none" xmlns="http://www.w3.org/2000/svg">
<path d="M28.9941 6.21937C30.7116 6.17326 32.4765 6.22805 34.1981 6.23857C35.3419 6.24557 36.533 6.20322 37.6714 6.27371C38.0161 6.29509 38.1675 6.36943 38.4602 6.53193C38.543 6.71764 38.6615 6.89771 38.7692 7.07143C38.4859 7.82106 38.3476 7.99509 37.5802 8.23132C37.4959 9.26335 37.5259 10.6032 37.5263 11.6545C37.5378 13.6481 37.5328 15.6418 37.5113 17.6353C35.7906 17.6055 33.9935 17.6336 32.2653 17.6334L21.8613 17.6324L13.2945 17.6405C13.3673 14.5723 13.1992 11.2473 13.3484 8.21802C13.0073 8.15921 12.715 8.13956 12.4508 7.88342C11.7465 7.20062 12.1813 6.34373 13.0883 6.25456C13.5967 6.20459 14.1933 6.23567 14.7108 6.23628L17.8516 6.24014C21.5156 6.2441 25.3412 6.29407 28.9941 6.21937Z" fill="white"/>
<path d="M13.3633 18.7611C14.688 18.7007 16.2601 18.7414 17.6046 18.7416L25.2578 18.743L33.0014 18.7414C34.0351 18.7411 37.5703 18.6258 38.3629 18.943C39.4344 20.2001 38.0985 20.1554 37.6848 20.5982C37.5129 21.2539 37.5026 24.4552 37.6311 25.1246C37.1684 24.9256 36.9602 24.6986 36.5849 24.3713C36.0156 25.224 35.0142 25.7763 34.5113 26.4897C33.3936 27.7941 32.3601 28.6852 31.5503 30.2624C30.518 30.3245 28.7709 30.257 27.6715 30.255L19.8083 30.2499L15.683 30.2544C15.2309 30.2577 13.8531 30.3005 13.5099 30.2369C13.242 29.8947 13.4939 22.3177 13.3836 21.1989C13.277 20.1169 13.1944 20.7594 12.3235 20.1666C11.8032 19.8126 12.1265 19.2392 12.4845 18.8911C12.8185 18.8021 13.0202 18.7904 13.3633 18.7611Z" fill="white"/>
<path d="M36.5678 25.7209C36.8576 25.8757 37.1227 26.0728 37.3544 26.3057C40.3846 29.3359 43.4953 33.9397 44.305 38.2361C44.4506 39.009 44.3642 41.0111 44.3894 41.8585C44.4431 43.6625 43.4395 45.4789 42.1085 46.6912C40.3857 48.2605 38.7333 48.8623 36.4323 48.8474C34.5919 48.8587 32.6849 48.1097 31.3424 46.856C27.8339 43.5794 28.2812 39.443 29.8346 35.3524C31.3806 31.2813 33.6244 28.7954 36.5678 25.7209ZM36.1412 46.7399C36.6492 46.5263 37.21 46.1253 36.8676 45.4634C36.5744 44.8967 35.5045 44.6362 34.9946 44.279C33.7305 43.4793 33.2208 42.1999 32.3829 41.0485C32.3044 40.9406 31.9282 40.7419 31.7847 40.6828C31.3694 40.9254 31.0481 40.9566 30.9212 41.4231C30.7218 42.1558 31.3907 42.9344 31.7022 43.5537C32.3998 44.9405 34.2032 46.3141 35.7247 46.6769C35.8618 46.7083 36.001 46.7293 36.1412 46.7399Z" fill="white"/>
<path d="M12.9349 31.1399C13.7965 31.0946 14.9988 31.1295 15.8784 31.1297L21.4423 31.1311L27.1514 31.1313C27.7965 31.1304 30.3265 31.0154 30.7518 31.293C30.7549 31.4086 30.177 32.2817 30.0746 32.4815C28.22 36.0982 26.6325 40.8394 28.5877 44.8024C28.6502 44.8795 28.8262 45.3175 28.8328 45.4689C28.6538 45.5414 14.9859 45.5513 13.5897 45.4999C13.3527 45.493 13.1174 45.4576 12.8888 45.3945C12.0804 45.1652 11.9956 44.7582 12.2216 44.0256C12.4702 43.8651 13.1029 43.6773 13.2513 43.4583C13.3252 43.3494 13.4011 33.9264 13.2341 33.0062C13.1022 32.9747 12.971 32.9401 12.8406 32.9026C12.5529 32.8178 12.3069 32.6678 12.1637 32.3944C12.079 32.2325 12.0632 32.0434 12.1197 31.8697C12.2443 31.4881 12.5998 31.3029 12.9349 31.1399Z" fill="white"/>
<path d="M28.3324 3.22111C29.1783 3.14699 33.1571 3.03747 33.724 3.40778C33.9151 3.5326 34.0025 3.77294 34.0479 3.98633C34.1065 4.26207 34.155 4.77359 33.995 5.01828C33.8431 5.11388 33.6111 5.10509 33.4253 5.11474C31.9924 5.15933 30.5438 5.11525 29.1095 5.13338C28.6713 5.13891 28.2202 5.138 27.7831 5.11616C27.5219 4.90111 27.5105 3.44272 28.3324 3.22111Z" fill="white"/>
</svg>
