<svg width="52" height="52" viewBox="0 0 52 52" fill="none" xmlns="http://www.w3.org/2000/svg">
<path d="M21.7599 11.2386C22.4816 11.1837 23.2736 11.2053 24.0008 11.2071C26.7773 11.214 29.5543 11.2064 32.3306 11.2181C32.9159 11.2205 32.9275 11.4866 33.0743 11.9687C32.7728 13.0925 32.2367 13.5091 31.9053 14.5212C31.8223 14.7747 31.8462 15.9317 31.8469 16.2716L31.8522 18.817C31.8545 20.0736 31.7628 23.1662 32.0126 24.223C32.5625 26.5494 34.2689 29.006 35.5401 30.9806C36.5173 32.5114 37.5243 34.0231 38.5604 35.5146C39.0039 36.1416 39.4699 36.7664 39.8897 37.4004C40.7123 38.6426 41.6565 39.7892 41.5627 41.3671C41.498 42.4569 41.1795 43.3621 40.3988 44.1451C39.9773 44.5706 39.447 44.8721 38.8658 45.0166C38.2199 45.1789 36.7682 45.1309 36.0529 45.1297L32.3222 45.1234L21.3248 45.1205C19.6642 45.1197 17.9689 45.095 16.3013 45.1322C13.574 45.1929 11.6702 41.7338 13.0322 39.4613C14.5876 37.0583 16.2001 34.5956 17.7815 32.2145C19.5011 29.6959 22.0482 26.3805 22.3189 23.2574C22.5566 20.5161 22.2891 17.3005 22.3984 14.4924C22.0957 14.0777 21.73 13.2921 21.5158 12.8132C21.1878 12.08 20.9008 11.6198 21.7599 11.2386ZM31.0527 43.7194L35.3258 43.7225C36.249 43.7226 37.2151 43.7682 38.1241 43.6147C39.5526 43.3736 40.4628 41.409 39.7448 40.163C39.2318 39.2726 38.5833 38.4492 38.0143 37.5917L34.6091 32.4953C32.9968 30.0903 31.3147 27.708 30.557 24.8666C30.0211 22.857 30.2071 20.7692 30.2384 18.7155C30.2773 17.2422 30.1241 15.2928 30.3678 13.8485C30.4042 13.6328 30.8558 13.0734 30.9813 12.8019C29.2214 12.7723 27.4611 12.7633 25.7009 12.775C25.2983 12.775 23.5554 12.8025 23.2392 12.7256L23.2581 12.7705C23.4605 13.2429 23.7895 13.474 23.9018 14.039C24.1176 15.1242 24.048 16.2311 24.042 17.3426C24.0163 19.0723 24.0873 20.8011 24.089 22.5305C24.0892 22.7256 24.0808 23.0125 24.0494 23.2085C23.2394 28.2539 19.6487 32.2657 16.9641 36.4366C16.1226 37.7441 15.1255 39.0203 14.3811 40.3805C14.135 40.8303 14.2272 41.768 14.4263 42.226C14.6988 42.8507 15.2142 43.3374 15.8535 43.5737C16.485 43.8072 21.3248 43.7196 22.2469 43.7196L31.0527 43.7194Z" fill="white"/>
<path d="M31.762 32.1156C32.4683 32.0825 33.2249 32.2479 33.6783 32.8357C34.4443 33.8287 35.0951 34.923 35.8088 35.9545C36.8293 37.4291 37.8532 38.8961 38.791 40.4258C38.922 40.6396 39.0391 40.9934 39.1231 41.2369C38.9667 41.9852 38.846 42.1778 38.3028 42.69C37.522 42.887 36.3354 42.8202 35.4905 42.815L32.6053 42.806L20.3887 42.8082C19.6188 42.8045 18.8488 42.8109 18.079 42.8272C16.8787 42.8504 15.3485 43.0281 15.1225 41.2856C15.1045 41.1468 15.3259 40.5618 15.4164 40.4135C16.6212 38.4391 17.9176 36.4946 19.257 34.6082C20.5686 32.7325 21.4583 34.3387 22.5781 35.2537C24.7502 37.0284 27.7056 34.0549 29.5178 32.9647C30.2607 32.5177 30.9063 32.2222 31.762 32.1156Z" fill="white"/>
<path d="M25.361 28.7594C26.2154 28.5625 27.0676 29.0953 27.2648 29.9496C27.462 30.8039 26.9293 31.6563 26.0751 31.8536C25.2205 32.0511 24.3678 31.5182 24.1705 30.6636C23.9733 29.809 24.5064 28.9564 25.361 28.7594Z" fill="white"/>
<path d="M27.2727 24.9601C27.7286 24.7925 28.2395 24.8836 28.6093 25.1986C28.979 25.5136 29.1502 26.0035 29.0572 26.4803C28.9641 26.957 28.6212 27.3466 28.1601 27.4993C27.463 27.7303 26.7095 27.3595 26.4673 26.6663C26.225 25.9731 26.5835 25.2136 27.2727 24.9601Z" fill="white"/>
<path d="M26.5893 19.0639C27.4562 18.991 27.7337 20.2173 26.528 20.7496C25.803 20.7507 25.2723 19.1325 26.5893 19.0639Z" fill="white"/>
<path d="M25.4493 6.50042C25.7737 6.40332 26.1199 6.40627 26.4426 6.50879C27.154 6.73482 27.6319 7.40194 27.617 8.14822C27.6021 8.89445 27.098 9.54201 26.3782 9.7395C25.4881 9.98371 24.5672 9.4663 24.3128 8.5791C24.0584 7.69185 24.565 6.76509 25.4493 6.50042Z" fill="white"/>
<path d="M29.515 4.15504C30.2287 4.00716 30.928 4.46296 31.0809 5.17565C31.2337 5.88836 30.7828 6.59082 30.0712 6.74865C29.5388 6.86667 28.9885 6.64688 28.6839 6.19453C28.3793 5.74222 28.3827 5.1496 28.6923 4.7007C28.8861 4.41973 29.1808 4.22428 29.515 4.15504Z" fill="white"/>
</svg>
