<svg width="62" height="63" viewBox="0 0 62 63" fill="none" xmlns="http://www.w3.org/2000/svg">
<rect width="61.5" height="63" rx="30.75" fill="#384892"/>
<path d="M42.9375 30.75C44.4609 30.75 45.75 32.0391 45.75 33.5625V41.0625C45.75 42.6445 44.4609 43.875 42.9375 43.875H35.4375C33.8555 43.875 32.625 42.6445 32.625 41.0625V27C32.625 21.8438 36.7852 17.625 42 17.625H42.4688C43.2305 17.625 43.875 18.2695 43.875 19.0312V21.8438C43.875 22.6641 43.2305 23.25 42.4688 23.25H42C39.8906 23.25 38.25 24.9492 38.25 27V30.75H42.9375ZM26.0625 30.75C27.5859 30.75 28.875 32.0391 28.875 33.5625V41.0625C28.875 42.6445 27.5859 43.875 26.0625 43.875H18.5625C16.9805 43.875 15.75 42.6445 15.75 41.0625V27C15.75 21.8438 19.9102 17.625 25.125 17.625H25.5938C26.3555 17.625 27 18.2695 27 19.0312V21.8438C27 22.6641 26.3555 23.25 25.5938 23.25H25.125C23.0156 23.25 21.375 24.9492 21.375 27V30.75H26.0625Z" fill="white"/>
</svg>
