<svg width="52" height="52" viewBox="0 0 52 52" fill="none" xmlns="http://www.w3.org/2000/svg">
<path d="M25.6265 12.7126C26.2074 12.6697 26.784 12.8399 27.2485 13.1913C28.3823 14.0641 28.4622 15.913 27.3401 16.8251C27.0507 17.0604 26.7942 17.2035 26.5676 17.5063C26.4635 18.7934 26.5148 20.6609 26.5102 21.9721C26.5069 22.9257 26.4626 24.6865 26.5443 25.5701C26.6439 25.6542 26.6673 25.6587 26.7863 25.7064L26.8218 25.7204C27.4847 26.561 27.8404 28.9712 28.1653 30.0828C29.2148 33.6341 30.4181 37.1381 31.7718 40.585C31.9056 40.9238 32.0188 41.4898 32.1702 41.8446C32.3847 42.3474 33.8166 45.4548 33.8078 45.7641C33.6115 45.9071 27.008 45.8477 26.1777 45.847L21.0443 45.8512C20.6934 45.8515 18.0689 45.9082 17.9289 45.7431C18.0582 45.1513 18.7338 43.8104 18.977 43.2016C19.4245 42.0812 19.894 40.979 20.3323 39.8546C21.1262 37.8171 21.861 35.7571 22.5358 33.6772C22.7537 33.0133 22.97 31.9907 23.2508 31.3823C23.9316 29.9073 24.2209 26.7196 25.1474 25.5507C25.2494 24.7392 25.2151 23.4042 25.215 22.5569C25.2227 20.8613 25.2115 19.1656 25.1814 17.4702C24.4278 16.9825 23.7444 16.2379 23.6229 15.3218C23.4562 14.0638 24.374 12.8583 25.6265 12.7126Z" fill="white"/>
<path d="M11.8946 46.2119C12.3195 46.185 13.7119 46.2601 14.267 46.2609L21.2721 46.2862L32.0325 46.2834L38.0836 46.2576C38.6954 46.2545 39.2924 46.2182 39.9052 46.2228C39.9478 47.0656 39.9126 48.3431 39.9052 49.1908C37.8762 49.0892 35.8296 49.1195 33.7962 49.1196L25.1939 49.1195L17.3174 49.1194C15.5202 49.1198 13.6913 49.0845 11.9019 49.1964C11.8693 48.7089 11.847 46.6503 11.8946 46.2119Z" fill="white"/>
<path d="M37.2085 4.76514C37.7524 4.76871 38.6345 6.10285 38.9507 6.58425C40.7282 9.30095 41.6175 12.503 41.4955 15.7473C41.4625 16.4633 41.2458 18.0545 41.0999 18.7432C40.9674 19.3685 40.2409 21.2147 39.988 21.8122C39.581 22.7736 38.1184 24.9026 37.2873 25.4409C37.0424 25.2382 36.4172 24.8141 36.7008 24.4327C37.9403 22.7654 39.1371 20.9344 39.761 18.9255C40.4217 16.7987 40.335 14.157 39.9932 11.975C39.6312 10.5077 38.9901 9.20208 38.2794 7.88177C37.8277 7.04266 36.898 6.18999 36.5278 5.43761L36.5173 5.41583C36.7377 5.09042 36.8761 4.97104 37.2085 4.76514Z" fill="white"/>
<path d="M14.3039 4.81024C14.5494 4.79062 14.9241 5.02397 15.0879 5.20684C15.3097 5.4543 14.9902 5.75832 14.8253 5.97348C13.3229 7.93405 12.043 10.2102 11.6945 12.6854C11.5386 13.7933 11.582 14.9695 11.5884 16.0856C11.5564 19.0385 12.9241 21.4194 14.4764 23.8048C14.6796 24.117 15.2335 24.3265 15.1326 24.7899C15.0774 25.0437 14.8166 25.1217 14.598 25.2737C14.549 25.3324 14.5185 25.3332 14.4427 25.3661C14.0772 25.2931 13.3687 24.3076 13.1388 23.9981C9.17063 18.6568 9.33688 10.7023 13.5684 5.56322C13.7685 5.32023 14.0513 4.98845 14.3039 4.81024Z" fill="white"/>
<path d="M12.2848 2.72656C13.0565 3.32941 13.069 3.53388 12.4518 4.21896C10.3791 6.50806 9.13371 9.87877 8.58451 12.884C8.46741 13.5248 8.48132 16.663 8.59005 17.3005C9.09897 20.2836 10.3144 23.2785 12.192 25.666C12.7015 26.3139 13.3561 26.6032 12.3669 27.2803C11.9682 27.1633 11.4559 26.3648 11.1899 26.027C10.0182 24.5388 9.14564 22.7575 8.46812 20.9955C8.23828 20.3979 8.15515 19.5434 7.94822 18.9225C7.81436 18.2351 7.52338 17.4931 7.4661 16.7936C7.36601 15.5715 7.32117 14.145 7.52613 12.9385C7.65511 12.1404 7.95838 11.3321 8.11103 10.5463C8.4734 8.68069 9.33023 7.00369 10.2877 5.37569C10.7958 4.51167 11.6483 3.55607 12.2848 2.72656Z" fill="white"/>
<path d="M39.3556 2.73633C40.7565 3.90766 42.4898 6.98873 43.1218 8.65669C45.4822 14.8859 44.1875 22.0321 39.7815 27.0224C39.7252 27.0862 39.4574 27.1813 39.3697 27.2119C39.3053 27.1697 39.2425 27.1251 39.1814 27.0782C38.4762 26.5443 39.1354 26.148 39.5317 25.6408C39.8548 25.2272 40.1053 24.8192 40.3967 24.3878C43.9917 19.0842 44.2398 12.1926 41.0355 6.64428C40.6621 6.00129 40.1713 5.3097 39.7355 4.70622C39.031 3.73063 38.3649 3.81229 39.3556 2.73633Z" fill="white"/>
<path d="M34.7426 7.00537C35.2518 7.329 35.9329 8.31817 36.2445 8.83136C37.9374 11.6148 38.4435 14.9609 37.6494 18.1204C37.2728 19.6519 36.1012 21.9931 34.8426 23.0313C34.7821 23.0812 34.6957 23.0431 34.6266 23.0248C34.3164 22.7199 33.8328 22.3833 34.0806 21.8969C34.5326 21.0085 35.3642 20.2004 35.7238 19.2686C36.1445 18.0677 36.5446 16.6169 36.5632 15.3368C36.5505 13.6185 36.2287 11.8314 35.4161 10.3064C35.0155 9.55464 34.1005 8.55826 33.8368 7.82884C34.1469 7.47276 34.3363 7.24892 34.7426 7.00537Z" fill="white"/>
<path d="M16.9216 7.0481C18.5147 7.51295 17.6504 8.33083 17.0734 9.15435C16.0869 10.566 15.4633 12.1989 15.2577 13.9088C14.9587 16.2714 15.6175 18.837 16.9129 20.8248C17.4884 21.7079 18.414 22.0612 17.188 22.9388C17.0209 23.0353 16.9503 23.032 16.7846 23.001C16.4858 22.797 15.2516 20.9135 15.0571 20.5282C13.5071 17.4584 13.4117 13.4699 14.6991 10.3046C14.9864 9.59838 16.3292 7.36787 16.9216 7.0481Z" fill="white"/>
<path d="M31.7152 9.64074C32.168 9.62281 32.5869 10.288 32.832 10.641C34.0986 12.4646 34.3757 14.5305 34.0762 16.6887C33.9786 17.3917 32.7065 20.5076 31.823 20.343C31.5384 20.1954 31.1541 19.9538 30.9482 19.7005C30.8431 19.5712 30.9384 19.4558 31.0049 19.2897C31.1646 18.8913 31.512 18.4728 31.6919 18.0995C32.0742 17.3057 32.478 16.1387 32.541 15.2692C32.6148 14.2508 32.1526 13.0509 31.7398 12.123C31.5958 11.7991 30.8711 10.7938 30.804 10.5314C30.753 10.332 31.4839 9.80044 31.7152 9.64074Z" fill="white"/>
<path d="M19.7711 9.64673C20.2237 9.65125 20.6722 10.2002 20.9954 10.5264C20.8255 10.8953 20.4953 11.3167 20.2608 11.6658C19.9167 12.1781 19.8231 12.5835 19.6067 13.126C18.9732 14.7281 19.2181 16.5734 20.0269 18.0685C20.2471 18.4755 21.0043 19.3915 20.8454 19.8063C20.698 19.9538 20.3918 20.0441 20.1866 20.1212C20.0482 20.2793 19.8225 20.3943 19.6298 20.2976C19.1671 20.0656 18.7458 19.2069 18.5029 18.7581C18.2118 18.2203 17.9833 17.6365 17.8056 17.0618C17.5466 15.8062 17.5156 13.7802 17.937 12.5767C18.2071 11.8051 19.0519 10.0071 19.7711 9.64673Z" fill="white"/>
</svg>
