<svg width="32" height="16" viewBox="0 0 32 16" fill="none" xmlns="http://www.w3.org/2000/svg">
<path d="M0 15.8333V14.1033C0.863333 13.9967 1.53556 13.7133 2.01667 13.2533C2.49889 12.7944 3.41 12.565 4.75 12.565C6.15444 12.565 7.14556 12.8428 7.72333 13.3983C8.30111 13.9539 9.15389 14.2317 10.2817 14.2317C11.4228 14.2317 12.2822 13.9539 12.86 13.3983C13.4378 12.8428 14.4289 12.565 15.8333 12.565C17.2244 12.565 18.2156 12.8428 18.8067 13.3983C19.3978 13.9539 20.2572 14.2317 21.385 14.2317C22.5261 14.2317 23.3822 13.9539 23.9533 13.3983C24.5256 12.8428 25.5133 12.565 26.9167 12.565C28.2567 12.565 29.1678 12.795 29.65 13.255C30.1311 13.7139 30.8033 13.9972 31.6667 14.105V15.835C30.66 15.7061 29.8611 15.4067 29.27 14.9367C28.6789 14.4667 27.8944 14.2317 26.9167 14.2317C25.81 14.2317 24.9622 14.5094 24.3733 15.065C23.7844 15.6206 22.7883 15.8983 21.385 15.8983C19.9939 15.8983 19.0028 15.6206 18.4117 15.065C17.8206 14.5094 16.9611 14.2322 15.8333 14.2333C14.6922 14.2333 13.8328 14.5111 13.255 15.0667C12.6772 15.6222 11.6861 15.9 10.2817 15.9C8.87722 15.9 7.88444 15.6222 7.30333 15.0667C6.72222 14.5111 5.87111 14.2333 4.75 14.2333C3.73667 14.2333 2.95722 14.4683 2.41167 14.9383C1.86611 15.4094 1.06222 15.7089 0 15.8367M0 9.55333V7.82333C0.863333 7.71667 1.53556 7.43333 2.01667 6.97333C2.49889 6.51444 3.41 6.285 4.75 6.285C6.14111 6.285 7.12889 6.56278 7.71333 7.11833C8.29778 7.67389 9.15389 7.95167 10.2817 7.95167C11.4228 7.95167 12.2822 7.67389 12.86 7.11833C13.4378 6.56278 14.4289 6.28444 15.8333 6.28333C17.2244 6.28333 18.2133 6.56111 18.8 7.11667C19.3867 7.67222 20.2422 7.95 21.3667 7.95C22.5067 7.95 23.3656 7.67222 23.9433 7.11667C24.5211 6.56111 25.5122 6.28333 26.9167 6.28333C28.2433 6.28333 29.1544 6.51333 29.65 6.97333C30.1444 7.43222 30.8167 7.715 31.6667 7.82167V9.55167C30.6478 9.42389 29.8461 9.125 29.2617 8.655C28.6772 8.185 27.8956 7.95 26.9167 7.95C25.81 7.95 24.9622 8.22778 24.3733 8.78333C23.7844 9.33889 22.7883 9.61667 21.385 9.61667C19.9939 9.61667 19.0028 9.33889 18.4117 8.78333C17.8217 8.22778 16.9622 7.95 15.8333 7.95C14.6922 7.95 13.8361 8.22778 13.265 8.78333C12.6928 9.33889 11.705 9.61667 10.3017 9.61667C8.89833 9.61667 7.89833 9.33889 7.30167 8.78333C6.705 8.22778 5.85444 7.95 4.75 7.95C3.75 7.95 2.97056 8.185 2.41167 8.655C1.85278 9.125 1.04889 9.42444 0 9.55333ZM0 3.27V1.54C0.863333 1.43333 1.53556 1.15 2.01667 0.69C2.49889 0.231111 3.41 0.00166655 4.75 0.00166655C6.14111 0.00166655 7.12889 0.279444 7.71333 0.835C8.29778 1.39056 9.15389 1.66833 10.2817 1.66833C11.4228 1.66833 12.2822 1.39056 12.86 0.835C13.4378 0.279444 14.4289 0.00111111 15.8333 0C17.2244 0 18.2133 0.277777 18.8 0.833333C19.3867 1.38889 20.2422 1.66667 21.3667 1.66667C22.5067 1.66667 23.3656 1.38889 23.9433 0.833333C24.5211 0.277777 25.5122 0 26.9167 0C28.2433 0 29.1544 0.229444 29.65 0.688333C30.1444 1.14833 30.8167 1.43167 31.6667 1.53833V3.26833C30.6478 3.14056 29.8461 2.84167 29.2617 2.37167C28.6772 1.90167 27.8956 1.66667 26.9167 1.66667C25.81 1.66667 24.9622 1.94444 24.3733 2.5C23.7844 3.05555 22.7883 3.33333 21.385 3.33333C19.9939 3.33333 19.0028 3.05555 18.4117 2.5C17.8217 1.94444 16.9622 1.66667 15.8333 1.66667C14.6922 1.66667 13.8361 1.94444 13.265 2.5C12.6928 3.05555 11.705 3.33333 10.3017 3.33333C8.89833 3.33333 7.89833 3.05555 7.30167 2.5C6.705 1.94444 5.85444 1.66667 4.75 1.66667C3.75 1.66667 2.96 1.90167 2.38 2.37167C1.8 2.84167 1.00667 3.14111 0 3.27Z" fill="black"/>
</svg>
